<svg width="160" height="40" viewBox="0 0 160 40" fill="none" xmlns="http://www.w3.org/2000/svg">
<path d="M17.4892 19.0769L15.6431 26.9354H22.0246C21.4092 31.1569 11.0154 32.9662 12.5969 22.7569C13.7169 15.6185 22.6462 11.7723 24.6277 17.3046L35.6677 14.5354C31.9015 -1.79077 2.76923 1.50154 0.41846 23.3846C-0.720001 34.0062 7.23692 39.8523 16.48 39.6985C23.0523 39.5877 28.2462 37.1938 30.7877 35.3908L34.6338 19.0769H17.4892ZM37.6677 15.04L32.1538 38.4554H43.6185L49.1077 15.04H37.6677ZM144.252 13.2923C142.087 13.2852 139.948 13.7668 137.995 14.7013C136.042 15.6357 134.325 16.9989 132.972 18.6892C133.397 16.96 133.803 15.04 133.803 15.04H129.803L132.222 4.87385H120.763L118.332 15.0462H116.197L118.628 4.87385H107.163L104.763 15.0462H100.825L99.3846 21.2677C98.1108 15.8585 93.0092 13.3108 88.2154 13.3108C81.4462 13.3108 76.2585 17.7415 74.0615 23.7231L79.6923 0H68.24L59.1385 38.4554H70.6031L73.0646 27.9262C72.6462 32.1477 74.2954 39.6862 84.5477 39.6862C89.7292 39.6862 96.3631 36.32 97.9508 31.6492L88.9846 30.08C88.524 30.703 87.928 31.2134 87.2415 31.5726C86.555 31.9318 85.796 32.1306 85.0215 32.1538C82.56 32.1538 81.8646 30.0492 82.3631 28.1662H99.0154C99.3911 27.1288 99.5988 26.0382 99.6308 24.9354C99.6548 24.32 99.6425 23.7034 99.5938 23.0892H102.837L99.1877 38.4738H110.64L114.302 23.0892H116.4L112.775 38.4738H124.24L127.932 23.0892H130.338C129.845 24.5231 129.45 25.9891 129.157 27.4769V27.5446C128.578 31.6554 129.951 39.6862 140.591 39.6862C145.772 39.6862 152.406 36.3138 153.982 31.6492L145.022 30.0738C144.559 30.696 143.961 31.2056 143.274 31.5647C142.587 31.9238 141.827 32.1231 141.052 32.1477C138.591 32.1477 137.895 30.0554 138.394 28.1662H155.077C155.44 27.1168 155.647 26.0201 155.692 24.9108C156.234 16.96 150.018 13.3046 144.24 13.3046L144.252 13.2923ZM90.0677 23.4831L83.7354 23.44C84.6954 20.1477 90.5662 19.4092 90.0677 23.4831ZM146.117 23.4831H139.785C140.745 20.1969 146.615 19.4277 146.117 23.4831ZM157.126 14.4554H157.495C157.809 14.4554 158.111 14.4554 158.111 14.08C158.111 13.7046 157.852 13.7292 157.612 13.7292H157.145L157.126 14.4554ZM156.775 13.4462H157.655C158.197 13.4462 158.449 13.6615 158.449 14.0923C158.449 14.2555 158.384 14.412 158.269 14.5275C158.154 14.6429 157.997 14.7077 157.834 14.7077L158.48 15.7108H158.098L157.483 14.7323H157.108V15.7108H156.757L156.775 13.4462ZM157.532 16.24C157.861 16.2498 158.185 16.1614 158.464 15.9861C158.742 15.8108 158.962 15.5565 159.095 15.2557C159.228 14.955 159.269 14.6213 159.212 14.2974C159.154 13.9735 159.002 13.6739 158.774 13.437C158.546 13.2001 158.252 13.0365 157.93 12.9672C157.609 12.8978 157.274 12.9258 156.968 13.0477C156.663 13.1695 156.401 13.3796 156.215 13.6511C156.029 13.9227 155.929 14.2434 155.926 14.5723C155.917 14.7886 155.952 15.0044 156.028 15.2069C156.105 15.4093 156.222 15.594 156.372 15.7499C156.522 15.9058 156.703 16.0297 156.902 16.1139C157.101 16.1981 157.316 16.241 157.532 16.24ZM157.532 12.64C157.915 12.6436 158.288 12.7606 158.605 12.9761C158.921 13.1915 159.167 13.4959 159.311 13.8508C159.454 14.2057 159.49 14.5951 159.412 14.9701C159.335 15.3451 159.148 15.6887 158.876 15.9577C158.603 16.2267 158.257 16.409 157.882 16.4816C157.506 16.5543 157.117 16.5139 156.764 16.3658C156.411 16.2176 156.109 15.9682 155.898 15.649C155.686 15.3298 155.574 14.9552 155.575 14.5723C155.575 14.3165 155.626 14.0632 155.725 13.8271C155.823 13.5911 155.968 13.3769 156.15 13.1972C156.332 13.0174 156.548 12.8756 156.785 12.78C157.023 12.6843 157.276 12.6367 157.532 12.64ZM54.7938 0L45.6738 38.4554H57.1446L66.2462 0H54.7938ZM51.3969 5.43385L39.9508 5.42154L37.9015 13.9877L50.0862 10.9354L51.3969 5.43385Z" fill="#11175E"/>
</svg>
